<?xml version="1.0" encoding="utf-8"?>
<!-- Generator: Adobe Illustrator 26.2.1, SVG Export Plug-In . SVG Version: 6.00 Build 0)  -->
<svg version="1.1" id="Profile" xmlns="http://www.w3.org/2000/svg" xmlns:xlink="http://www.w3.org/1999/xlink" x="0px" y="0px"
	 viewBox="0 0 200 200" style="enable-background:new 0 0 200 200;" xml:space="preserve">
<style type="text/css">
	.baseColor{fill:#55431D;}
	.lighterColor{fill:#6F5E3E;}
	.darkerColor{fill:#292312;}
	.eye{fill:#F4F2F3;}
	.iris{fill:#626390;}
	.pupil{fill:#010101;}
	.skin{fill:#D5AA82;}
	.skinShadow{fill:#BE8E6A;}
	.mouth{fill:#7D2D18;}
	.nose{fill:#010101;}
	.eyebrow{fill:#584621;}
	#Hair{display:none;}
	#Hair1{display:inline;}
</style>
<g id="Male">
	<g id="HeadWhole">
		<path id="Head_00000019664669410432336120000009834197014778710191_" class="skin" d="M80.2,134.4c0,0-10.3-24.5-11.8-30.4
			c-0.2-0.8-0.2-13.9-0.2-13.9s-3.7-2.9-3.1-9.1c0,0,1.4-13,5.8-16.6c0,0,17.4-9.7,22.8-11c0,0,12-2.3,23,0.4
			c0,0,12.2,12.6,15.7,19.7c0,0,2.5,9.1-0.2,15.9c0,0-0.6,2.1,1,1.7c0,0,2.9,0.8,0.2,7c0,0-4.6,10.8-7,9.9c0,0,0.6,5.4-1,8.3
			c0,0-0.8,2.3-0.4,5.2c0,0,2.5,17.8,3.7,20.5c0,0-7.9,5.2-20.1,5.6c0,0-16.1,1.5-19.3-5l-0.4-6.2c0,0-7,0.4-8.1-1.1L80.2,134.4z"/>
		<path id="Shadow" class="skinShadow" d="M130.3,89.8c0,0,4.6-5.2,0.6-17.1l-5.5-8.1c0,0-0.6,17.7-5.2,20.9c0,0-3.2,1.2-2,3.2
			c0,0,3.8,8.4,3.5,12.2c0,0-0.3,12.8-6.4,20.9l-3.2,8.7l0.7-0.5c-0.4,0.3-0.7,0.5-0.7,0.5c5.5,2.4,12.1,13.3,12.1,13.3l4.6-1.7
			c-0.8-0.8-3.7-20.5-3.7-20.5c-0.1-0.9-0.2-2.1-0.2-3c0.8-2.7,1.9-7.6,1.5-10.6c0,0-4-7.4-1.4-13.2L130.3,89.8z"/>
	</g>
	<g id="Face_00000048489740498818265970000001179909477237927068_">
		<g id="Eyes">
			<path id="EyeLeft" class="eye" d="M71.7,93.2c0,0,1-2.7,4.6-2.7c0,0,4.3,1,5.6,2.5c0,0-1.4,1.9-5.8,1.7
				C76.2,94.7,71.7,94.9,71.7,93.2z"/>
			<path id="EyeRight" class="eye" d="M90.1,92.7c0,0,1.6-1.5,3.9-1.5c0,0,3,0.1,4.9,2c0,0,0.4,1-0.1,1.5c0,0-1.2,1-4.4,0.6
				C94.5,95.3,90.7,94.4,90.1,92.7z"/>
			<path id="IrisLeft" class="iris" d="M74.2,92.1c0,0-0.3,2.2,0.9,2.2c0,0,2,0.4,2.5-0.9c0,0,0.4-2.1-1.2-2.9
				C76.4,90.5,74.5,90.1,74.2,92.1z"/>
			<ellipse id="PupilLeft" class="pupil" cx="76.3" cy="92" rx="1.2" ry="1.4"/>
			<ellipse id="IrisRight" class="iris" cx="95.7" cy="93.3" rx="1.6" ry="2"/>
			<ellipse id="PupilRight" class="pupil" cx="94.6" cy="92.8" rx="1.2" ry="1.6"/>
		</g>
		<path id="Mouse" class="mouth" d="M79.8,119.1c0,0,3.9,0.2,5.8,0c0,0,3.7,0,3.7,1c0,0-2.5,0.8-4.6,0.6
			C84.7,120.6,79.8,120.6,79.8,119.1z"/>
		<path id="Nose" class="nose" d="M87.1,105l3,2.8c0,0,1.2,1.2,0.9,2.5c0,0-1,1-2.6,0.3c0,0,1.5-0.6,1-1.5
			C89.4,109.1,88.3,106.6,87.1,105z"/>
		<g id="Eyebrows">
			<path id="EyebrowLeft" class="eyebrow" d="M66.9,81.4c0,0,3.5-1.4,8.1-1.5c0,0,5.6-0.4,5.8,1.7l-12,0.4
				C68.8,81.9,67.1,82.3,66.9,81.4z"/>
			<path id="EyebrowRight" class="eyebrow" d="M85.4,79.8c0,0,0,2.7,2.3,2.9l14.5,0.2c0,0,0.4-0.8-1.2-1.2c0,0-10.8-0.6-12-1.5
				C89.1,80.2,87.2,79.8,85.4,79.8z"/>
		</g>
	</g>
	<g id="Hair">
		<path id="Hair23" class="baseColor" d="M58,125.1l-5.4,2.2l-2.8-5.4l5.4-22.9c0,0-2.6-11.5-1.8-15.9L55.6,73l14.5-7.4l1.4-4
			l14.1-14.1l29.1,3.6l5,3.2l2.2,5.2l14.9,12.7l2.6,22.7l-0.2,26.3l-8.2,4l-2.4-2.4l5.2-31l-4.2-16.5l-1.2,7.4l2.2,4.2l-1.6,9.6
			l-0.6,39.8l-8.4-0.4l-2.8-2l4.2-23.5L101,124.9l22.3-23.1l-3.2-3.6l-1.4,3.8l-14.9,18.3l2.6-15.7c0,0-3.8-10.9-4-10.3
			c-0.2,0.6-4.8,17.1-4.8,17.1l-8.2-25.1l-3,13.3l-5.6-12.9l-3,16.7l-5-1.6l-0.4-16.7c0,0-13.3,21.9-13.1,21.3s6.6-7,6.6-7L58,125.1
			z"/>
		<g id="Hair21">
			<g>
				<path class="baseColor" d="M77.6,70.5L68.9,63l8.7-15.1c0,0,23.4-10.2,30.5-10.4l13.1,3l7.8,7.4l4.4,14.3l2.5,9.6l-3.5,18.9
					l-3.5-19.4l-9-14.5l-11.6-3.5L77.6,70.5z"/>
			</g>
			<g>
				<path class="baseColor" d="M77.6,70.5L68.9,63l8.7-15.1c0,0,23.4-10.2,30.5-10.4l13.1,3l7.8,7.4l4.4,14.3l2.5,9.6l-3.5,18.9
					l-3.5-19.4l-9-14.5l-11.6-3.5L77.6,70.5z"/>
			</g>
		</g>
		<g id="Hair20">
			<path class="baseColor" d="M68.1,68.6L70.7,57l-0.4-18l14.5,3.4l1.1-3.1l6,4l21,6l13,9.9l8.6,15l-1.4,17l-6.8,1.5l-2.3,4.6
				l-1.7,12.8l-10.6-27.7c0,0-17.6-5.1-19.8-6.2L72.8,64.8L68.1,68.6z"/>
		</g>
		<g id="Hair19">
			<g>
				<path class="baseColor" d="M53.2,86.7l4.3-22.5l6.2-8l12.9-0.3L94,50.6h26.3l21,20.8l-6.6,23.9l-1.7-3.5l-2.9-1.3l-4,5.5
					l-6.8-3.1L108,97.8l-6.8-11.7V80l-26.2-4.3L68,75.3l0.3,1.5c0,0-3.5,3.9-3.5,7L53.2,86.7z"/>
				<path class="darkerColor" d="M67.8,77.3l-12.7,9l9.7-2.5C64.8,83.9,64.6,80.7,67.8,77.3z"/>
				<polygon class="lighterColor" points="109.6,79 101.3,80 107.1,96.6 				"/>
			</g>
		</g>
		<g id="Hair18">
			<g>
				<polygon class="baseColor" points="62.3,53.7 77.9,71.1 107.5,64.4 125.5,69.9 128.4,66.6 117,50.6 98.5,45.5 				"/>
			</g>
			<g>
				<polygon class="baseColor" points="62.3,53.7 77.9,71.1 107.5,64.4 125.5,69.9 128.4,66.6 117,50.6 98.5,45.5 				"/>
			</g>
		</g>
		<g id="Hair17">
			<polygon class="baseColor" points="55.1,154.8 58.8,131.1 72.5,113.8 74.8,119.6 80.6,133.8 76.8,142.1 			"/>
			<path class="baseColor" d="M56.2,109.9l6.7-28.7l8.7-25.1l16-14.4l29.1,1.3l19.7,22l1.7,28.7l0.7,8.7l27.7,46.8l-5.7-5.7
				L129.7,170l-7.8-28.6l-9.4-11.5l15.1-22.4l7-12.6l-1.3-3.9c0,0-2.2-4.7-5.9,3.3l-0.3,4.3l-3,10l-16.7,18l3.3-18.7L107,97.5
				l-0.3-7.3l-5,26.7l-8.4-30.5l-8.3,12.4l-3.3-13.6l-5.8,10.4l-3.5-14.3L56.2,109.9z"/>
			<path class="darkerColor" d="M120.3,92.8c-0.3,1-9.7,15-9.7,15l-3.3,18.7l16.7-18l2.7-8.4l-2.7-6.7L120.3,92.8z"/>
		</g>
		<g id="Hair16">
			<polygon class="baseColor" points="68.2,90.7 60.6,88.7 54.3,82.3 53.9,61.7 61,54.6 95.1,39.1 119.7,43.1 140,63.3 133.6,85.5 
				131.2,82.3 128.1,81.5 120.9,93.8 115,82.7 113,107.3 107,118 107,104.6 101.5,71.6 76.1,67.7 68.6,86.3 			"/>
			<polygon class="lighterColor" points="65.8,116.1 59.4,91.1 56.7,66.1 61,54.6 95.1,39.1 78.1,68.1 76.1,67.7 68.6,86.3 			"/>
			<polygon class="lighterColor" points="86,58.9 119.7,43.1 128.1,61.7 125.3,93.8 120.9,93.8 115.4,80 113,107.3 107,118 
				110.6,104.6 110.2,73.6 95.1,56.6 			"/>
			<polygon class="baseColor" points="132.2,100.9 138.2,102.5 140.6,120.4 130.7,118 126.8,108.7 			"/>
		</g>
		<polygon id="Hair15" class="baseColor" points="63.2,107.5 66.8,66.5 94.1,52 115.4,51.2 133.6,69.9 135.1,85 134.3,92.2 
			130.7,90.9 126.3,95.5 125.1,108.3 109,119.6 109,108.3 104.6,98.3 104.2,89 102.6,89 102.2,112.3 92.5,85 87.3,101.1 86.1,84.6 
			82.9,93.4 81.7,87.4 77.6,96.3 76.8,83.4 72,101.1 69.2,83.4 		"/>
		<path id="Hair14" class="baseColor" d="M59,104.4L67,67.8l27.9-24.7l20.8,6.5l22.4,18.5l-3.3,24.1l-2.9-2.3l-1.7,1.2l-1.7,1.7
			l-3.5,3.2v7l-16.2,21.5l-1.5-21.8l-5-7.8l-0.3-6.8l-9.1,20.2l-9.4-25.5l-2.1,9.7l-0.6-9.1c0,0-6.8,11.4-6.5,10
			c0.3-1.5-0.9-15.3-0.9-15.3s-2.9,7.3-8.2,9.4l2.4,0.9L59,104.4z"/>
		<g id="Hair13">
			<path class="baseColor" d="M97.1,61.6l-16.2,12l-2.7-8.7l-3.8,3.8l-5.2-3.2c0,0,10.2-13.8,13.6-16c0,0,19.8-12.8,22.2-14.7
				l22,11.8l2.4,11.6l3.6,5.8l0.2,17.8l-0.6,9.5c0,0-5-1.5-8.9,2.5l-2.8,8.8l-3-9.9L97.1,61.6z"/>
			<path class="lighterColor" d="M110,44.6L78.6,69.4c0,0-9.6,0.2-9.1,0c0.5-0.2,13.9-19,13.9-19l4.4-4.1l17.7-12L127,46.7l2.4,11.6
				l-16.8-13.2C112.5,45.1,111.3,43.8,110,44.6z"/>
		</g>
		<g id="Hair12">
			<polygon class="lighterColor" points="144.3,127 136.7,96.2 126.5,109.7 126.3,112.9 135.1,129.3 			"/>
			<path class="baseColor" d="M139.8,91.1l-1.4-10.2l-3.2-16L116,53.2l11.8,12.8l4.6,7.4l-0.2,15.9l-0.5,2c0.7-0.3,2.1-0.7,2.4,1
				c0,0,2.1,4.4-6.7,15.6l-0.4,1.4L139.8,91.1z"/>
		</g>
		<g id="Hair11">
			<path class="baseColor" d="M65,82.5l3.3,7.5L68,101.5l9,25.9c0,0-9.1,2.9-8.9,2.3c0.2-0.6-7.4-12-7.4-12l0.4-20.5L65,82.5z"/>
			<path class="baseColor" d="M69,66.9l9.7,5.7l3.2,2.3l16.7-5.9L97.9,77l19.4,1.4l8.4,16.7l1.7,26.4l19.4-17.8l-4-15.4l-2.3-21
				l-20.9-31l-11.2,2.3c0,0-12-2.3-20.5-0.8l-11,13L69,66.9z"/>
			<polygon class="lighterColor" points="90.3,44.5 124.5,70.3 133.9,113.4 122.3,130.1 109.9,137 120.3,116.5 125,99.5 107.9,79.4 
							"/>
		</g>
		<g id="Hair10">
			<path class="baseColor" d="M67.8,69.1L70,58.5L81,50l8.5-9.1l10-0.3l4.1-2.5l10.3,0.3l17.9,13.8l9.4,19.4L129,66.3l-27,11l-6-0.6
				l0.2,3.8l-8.4-4.1c0,0-2.2-2.8-8.5,1.3l-6.6-7.8L67.8,69.1z"/>
			<polygon class="lighterColor" points="125.5,98.3 117.4,94.5 102,77.3 129,66.3 141.2,71.6 133.2,91 129.3,91.7 			"/>
			<polygon class="darkerColor" points="105.1,68.8 107.6,57.8 107,53.5 110.5,53.1 110.8,57.2 			"/>
			<polygon class="darkerColor" points="103.3,72.9 95.1,66.9 96,76.7 102,77.3 			"/>
			<path class="darkerColor" d="M82.3,75.7l-0.6-5.3l6.3,6C87.9,76.3,86.6,75.1,82.3,75.7z"/>
		</g>
		<polygon id="Hair9" class="baseColor" points="114.4,103.9 112.7,88 102.5,81.2 109.6,72.1 120.8,64.2 116.4,54.5 134.2,72.3 
			135.3,123.9 129,129.7 114.4,126.3 127.2,100.3 129.9,90.6 119.4,94.3 		"/>
		<g id="Hair8">
			<polygon class="baseColor" points="69,79.1 66.1,82.9 60.8,102 60.5,73.2 95.2,42.4 117.2,46.5 135.7,45.6 138.6,50.6 
				137.1,56.5 139.5,55.9 140.6,51.2 153.9,50.6 146.8,60.6 145.6,66.8 153.9,62.6 162.7,71.2 154.4,81.1 148,76.4 144.2,77.3 
				144.8,83.2 135.4,90.8 134.3,94.7 131.4,91.8 131.3,88.2 128.9,88.2 122.5,93.2 116.6,90.2 109.5,97.6 101.9,112.5 104.8,92.9 
				98.1,86.4 86.4,66.2 76.1,69.1 66.4,79.1 			"/>
			<g>
				<g>
					<polygon class="lighterColor" points="73.7,67.3 60.5,73.2 60.5,79.4 					"/>
					<polygon class="lighterColor" points="93.1,72.6 110.7,86.7 111,95.2 101.9,112.5 104.8,92.9 					"/>
					<polygon class="lighterColor" points="151.8,65.6 154.4,81.1 162.7,71.2 					"/>
					<polygon class="lighterColor" points="145.3,60.6 140.1,53.5 140.6,51.2 153.9,50.6 					"/>
					<polygon class="lighterColor" points="130.1,53 135.7,45.6 119.2,46.2 123,50 					"/>
					<polygon class="lighterColor" points="141.8,80.3 137.7,79.4 136,87 135.4,90.8 144.8,83.2 142.7,82.6 					"/>
				</g>
				<g>
					<polygon class="lighterColor" points="73.7,67.3 60.5,73.2 60.5,79.4 					"/>
					<polygon class="lighterColor" points="93.1,72.6 110.7,86.7 111,95.2 101.9,112.5 104.8,92.9 					"/>
					<polygon class="lighterColor" points="151.8,65.6 154.4,81.1 162.7,71.2 					"/>
					<polygon class="lighterColor" points="145.3,60.6 140.1,53.5 140.6,51.2 153.9,50.6 					"/>
					<polygon class="lighterColor" points="130.1,53 135.7,45.6 119.2,46.2 123,50 					"/>
					<polygon class="lighterColor" points="141.8,80.3 137.7,79.4 136,87 135.4,90.8 144.8,83.2 142.7,82.6 					"/>
				</g>
			</g>
		</g>
		<polygon id="Hair7" class="baseColor" points="68.7,67.7 70.2,63.4 98.3,44.1 119,51.4 142.6,72.5 136.5,97.7 126.7,114.5 
			127.1,107.3 131.6,100.5 134.1,96.9 134.5,90.8 132,90 126.3,94.9 125.9,101.4 122.7,104.6 114,86.6 101.5,73.9 83,73.1 		"/>
		<path id="Hair6" class="baseColor" d="M67.3,67.9l3-12.7l38.3-15.6L139.1,63l3,7l-7.8,41.7l-3.2-10.4l2.7-5.4l-2.5-4.4l-5.7,4.7
			l0.4,5.5l-3.5,5.5L121.6,88c0,0-6.4-12.1-6.9-15.3l-16.3,1.5C98.5,74.3,83.1,73.5,67.3,67.9z"/>
		<g id="Hair5">
			<polygon class="baseColor" points="68.7,91.1 68.9,105 51.7,103.9 			"/>
			<g>
				<path class="baseColor" d="M65.5,81.3l-18.8,0.4l16.7-11.7L63,67.6l14.2-9.2L98.1,40l22.6,7.9l26.3,21.7l44.3,77.1l-38-23.7
					l-0.8,3.3l-17.5-9.2l-1.3-4.6l-0.4-12.5l2.1-4.2l-1.7-2.9l-4.7,0l-0.3,7.8c0,0-3.2,1-2.3,5.2l-4.4-1.7l-3.3-9.2l-17.1-17.5
					l-32.6-9.5L65.5,81.3z"/>
				<polygon class="lighterColor" points="164,107.2 135.7,94.3 133.6,93 139.4,90.5 130.6,68.8 136.5,71.7 158.6,96.4 				"/>
				<polygon class="lighterColor" points="162.4,110.2 174.5,136.5 159.5,126.5 157.4,120.2 				"/>
			</g>
		</g>
		<path id="Hair4" class="baseColor" d="M66.4,73.1l17.4-2.9l13.9,4.1l18.9,19.1l6.8,0.6c0,0,5-4,9.3-2.5c1.1,0.4,2.2-7.4,2.2-7.4
			s1.2-8.1-8.1-18.5L114,67.3l-15.7-7.5L82.6,58l-13.3,7.5L66.4,73.1z"/>
		<polygon id="Hair3" class="baseColor" points="68.1,67.8 80.5,53.3 99.1,41.6 121.1,51.5 141.4,77.6 142,113 125.6,121.5 
			124.6,104.5 104.5,100.3 89,88.7 		"/>
		<g id="Hair2">
			<polygon class="baseColor" points="67.9,90.2 68.1,104.1 50.9,103 			"/>
			<g>
				<path class="baseColor" d="M64.7,80.4l-18.8,0.4l16.7-11.7l-1.1-4l9.3-4.6l3.5-18l6.5,2.4l6.3-9.9L113.8,49l30.2,2.9l2.2,16.9
					l44.3,77.1l-51.7-27.3l-13.3-2.2l1-8.3l6-8.9l2.1-4.2l-1.7-2.9l-4.7,0l-0.3,7.8c0,0-3.2,1-2.3,5.2l-4.4-1.7l-3.3-9.2l-17.1-17.5
					L68,67.2L64.7,80.4z"/>
				<polygon class="lighterColor" points="163.3,106.3 134.9,93.4 132.8,92.1 138.6,89.6 129.9,67.9 135.7,70.8 157.8,95.5 				"/>
				<polygon class="lighterColor" points="160.2,110.4 172.3,136.7 153.8,127 155.1,120.4 				"/>
			</g>
		</g>
		<g id="Hair1">
			<g>
				<polygon class="lighterColor" points="65.1,80 52.9,78.7 55.3,66.2 62.8,46.9 95.3,32.6 119.7,37 143.1,58.1 140,85.8 
					132.9,100.8 128.1,100.3 133.3,84.6 132.9,78.7 129.5,79.4 127.1,82.1 127.1,84.8 123.4,95.6 117.3,84.8 98,75.7 92.6,82.1 
					79.4,60.8 68.5,68.2 				"/>
				<polygon class="lighterColor" points="76,50.6 62.1,48.6 55.3,66.2 54.6,68.9 62.8,54.3 79.4,60.8 				"/>
				<polygon class="lighterColor" points="83.4,49.9 79.7,56.4 96.3,90.9 116,91.3 103.4,83.8 103.4,77.7 96.3,57 				"/>
				<polygon class="lighterColor" points="67.7,93.9 68.3,104.7 70.5,110.8 67.1,130.8 61,105.5 				"/>
				<polyline class="lighterColor" points="123.4,97 120,121.4 122.7,140.4 125.8,118.7 123.4,95.6 				"/>
			</g>
			<g>
				<polygon class="baseColor" points="65.1,80 52.9,78.7 55.3,66.2 62.8,46.9 95.3,32.6 119.7,37 143.1,58.1 140,85.8 132.9,100.8 
					128.1,100.3 133.3,84.6 132.9,78.7 129.5,79.4 127.1,82.1 127.1,84.8 123.4,95.6 117.3,84.8 98,75.7 92.6,82.1 79.4,60.8 
					68.5,68.2 				"/>
				<polygon class="lighterColor" points="76,50.6 62.1,48.6 55.3,66.2 54.6,68.9 62.8,54.3 79.4,60.8 				"/>
				<polygon class="lighterColor" points="83.4,49.9 79.7,56.4 96.3,90.9 116,91.3 103.4,83.8 103.4,77.7 96.3,57 				"/>
				<polygon class="lighterColor" points="67.7,93.9 68.3,104.7 70.5,110.8 67.1,130.8 61,105.5 				"/>
				<polyline class="lighterColor" points="123.4,97 120,121.4 122.7,140.4 125.8,118.7 123.4,95.6 				"/>
			</g>
		</g>
		<g id="Hair22">
			<g>
				<path class="lighterColor" d="M66.6,81c0,0-1.4-0.8-1.8,2l-0.6,9.3l2.6,8.9L55.3,89.5l-0.2-18.1l7.9-9.5l32.9-15.2l24.4,6.5
					l20.1,20.3l-6.7,22.7l-2-3.9h-3l-5.7,5.9l-0.2,5.3h-2.8l-3.9-9.5l-3.9-3.4l-2,10.8l-8.7,7.7l5.7-7.3l-5.5-20.7l-18.5-2L67,72
					L66.6,81z"/>
				<polygon class="lighterColor" points="81,69.8 95.9,46.7 63,61.9 				"/>
				<polygon class="lighterColor" points="119.8,54.6 81.9,69.6 95.3,66.4 110.7,84.2 110.5,98.4 112.3,90.7 113.1,87.9 115.5,93.4 
					120.2,103.5 122.9,103.5 128.7,71.6 				"/>
			</g>
			<g>
				<path class="baseColor" d="M66.6,81c0,0-1.4-0.8-1.8,2l-0.6,9.3l2.6,8.9L55.3,89.5l-0.2-18.1l7.9-9.5l32.9-15.2l24.4,6.5
					l20.1,20.3l-6.7,22.7l-2-3.9h-3l-5.7,5.9l-0.2,5.3h-2.8l-3.9-9.5l-3.9-3.4l-2,10.8l-8.7,7.7l5.7-7.3l-5.5-20.7l-18.5-2L67,72
					L66.6,81z"/>
				<polygon class="lighterColor" points="81,69.8 95.9,46.7 63,61.9 				"/>
				<polygon class="lighterColor" points="119.8,54.6 81.9,69.6 95.3,66.4 110.7,84.2 110.5,98.4 112.3,90.7 113.1,87.9 115.5,93.4 
					120.2,103.5 122.9,103.5 128.7,71.6 				"/>
			</g>
		</g>
	</g>
</g>
<g>
</g>
<g>
</g>
<g>
</g>
<g>
</g>
<g>
</g>
<g>
</g>
</svg>
